<svg xmlns="http://www.w3.org/2000/svg" width="32" height="32" viewBox="0 0 32 32"><rect width="32" height="32" rx="6" fill="#F7DF1E"/><path d="M21.5 24.1c.5.8 1.1 1.5 2.3 1.5 1 0 1.6-.5 1.6-1.2 0-.8-.6-1.1-1.8-1.6l-.6-.2c-1.7-.7-2.8-1.5-2.8-3.2 0-1.6 1.2-2.8 3-2.8 1.3 0 2.2.5 2.9 1.6l-1.6 1c-.3-.5-.7-.8-1.3-.8-.6 0-1 .4-1 .8 0 .6.4.9 1.4 1.3l.6.2c2 .8 3.1 1.6 3.1 3.3 0 1.9-1.5 2.9-3.5 2.9-2 0-3.2-1-3.8-2.1l1.7-1zm-8.2.2c.3.6.6 1.1 1.3 1.1.7 0 1.1-.3 1.1-1.4v-6.2h2.1v6.3c0 2.2-1.3 3.2-3.1 3.2-1.7 0-2.7-.9-3.2-2l1.8-1zm-7.3-16.3h22v16.2h-22v-16.2z" fill="#222"/></svg>
