<svg xmlns="http://www.w3.org/2000/svg" width="32" height="32" viewBox="0 0 32 32"><rect width="32" height="32" rx="6" fill="#47A248"/><path d="M16.1 6.5c-.1 0-.2.1-.2.2-.2 1.2-1.2 2.2-2.1 3.2-2.2 2.5-4.7 5.3-4.7 9.2 0 4.2 3.2 7.6 7 7.6s7-3.4 7-7.6c0-3.9-2.5-6.7-4.7-9.2-.9-1-1.9-2-2.1-3.2 0-.1-.1-.2-.2-.2zm0 2.2c.5.7 1.2 1.4 1.8 2.1 2.1 2.4 4.3 4.9 4.3 8.1 0 3.5-2.7 6.2-6 6.2s-6-2.7-6-6.2c0-3.2 2.2-5.7 4.3-8.1.6-.7 1.3-1.4 1.8-2.1zm-.1 4.1c-.2 0-.3.1-.3.3v5.7c0 .2.1.3.3.3s.3-.1.3-.3v-5.7c0-.2-.1-.3-.3-.3zm0 7.2c-.2 0-.3.1-.3.3v1.1c0 .2.1.3.3.3s.3-.1.3-.3v-1.1c0-.2-.1-.3-.3-.3z" fill="#fff"/></svg>
