<svg xmlns="http://www.w3.org/2000/svg" width="32" height="32" viewBox="0 0 32 32"><rect width="32" height="32" rx="6" fill="#8CC84B"/><path d="M16 6.5c-.3 0-.6.1-.8.2l-8.2 4.7c-.5.3-.8.8-.8 1.3v6.6c0 .5.3 1 .8 1.3l8.2 4.7c.5.3 1.1.3 1.6 0l8.2-4.7c.5-.3.8-.8.8-1.3v-6.6c0-.5-.3-1-.8-1.3l-8.2-4.7c-.2-.1-.5-.2-.8-.2zm0 1.7l7.7 4.4-3.2 1.8-7.7-4.4 3.2-1.8zm-8.2 5.2l3.2 1.8v3.6l-3.2-1.8v-3.6zm8.2 10.1l-7.7-4.4 3.2-1.8 7.7 4.4-3.2 1.8zm8.2-5.7l-3.2-1.8v-3.6l3.2 1.8v3.6zm-8.2-1.8l-7.7-4.4 7.7-4.4 7.7 4.4-7.7 4.4z" fill="#222"/></svg>
